<svg width="960" height="640" viewBox="0 0 960 640" fill="none" xmlns="http://www.w3.org/2000/svg" role="img" aria-labelledby="title desc">
  <title id="title">Ashstep Quit Drinking visual</title>
  <desc id="desc">A calm app-style composition with a water glass, step markers, and a weekly progress surface.</desc>
  <rect width="960" height="640" rx="44" fill="#EEF7F5"/>
  <path d="M0 448C128 398 230 410 356 460C494 515 621 516 742 464C821 431 891 389 960 392V640H0V448Z" fill="#D7ECE6"/>
  <path d="M0 0H960V190C830 204 758 166 649 133C519 93 391 112 266 160C160 201 78 210 0 184V0Z" fill="#F8EEE0"/>
  <rect x="102" y="130" width="334" height="380" rx="32" fill="#FFFDF8" stroke="#D7C7AD" stroke-width="4"/>
  <rect x="138" y="170" width="164" height="22" rx="11" fill="#335F5A"/>
  <rect x="138" y="216" width="242" height="16" rx="8" fill="#BDDAD3"/>
  <rect x="138" y="252" width="198" height="16" rx="8" fill="#E3D3BA"/>
  <rect x="138" y="324" width="262" height="116" rx="24" fill="#F3F9F7" stroke="#BDDAD3" stroke-width="3"/>
  <path d="M186 395C216 348 256 348 285 395C315 442 356 442 386 395" stroke="#2E7A72" stroke-width="12" stroke-linecap="round"/>
  <circle cx="184" cy="396" r="12" fill="#2E7A72"/>
  <circle cx="386" cy="396" r="12" fill="#2E7A72"/>
  <rect x="510" y="134" width="264" height="354" rx="132" fill="#FFFDF8" stroke="#335F5A" stroke-width="6"/>
  <path d="M565 290H719L699 440C696 465 674 484 648 484H636C610 484 588 465 585 440L565 290Z" fill="#D7ECE6" stroke="#335F5A" stroke-width="6" stroke-linejoin="round"/>
  <path d="M587 354C618 337 654 337 685 354" stroke="#2E7A72" stroke-width="8" stroke-linecap="round"/>
  <path d="M586 394C618 377 654 377 686 394" stroke="#2E7A72" stroke-width="8" stroke-linecap="round"/>
  <path d="M612 242L642 212L672 242" stroke="#C07A3E" stroke-width="10" stroke-linecap="round" stroke-linejoin="round"/>
  <circle cx="798" cy="190" r="34" fill="#335F5A"/>
  <path d="M782 190L794 203L816 177" stroke="#FFFDF8" stroke-width="8" stroke-linecap="round" stroke-linejoin="round"/>
  <circle cx="805" cy="478" r="28" fill="#C07A3E"/>
  <path d="M793 479H817" stroke="#FFFDF8" stroke-width="7" stroke-linecap="round"/>
</svg>
