<svg width="960" height="640" viewBox="0 0 960 640" fill="none" xmlns="http://www.w3.org/2000/svg" role="img" aria-labelledby="title desc">
  <title id="title">Ashstep Substance Support visual</title>
  <desc id="desc">A quiet support-path composition with a shield, check marks, and guided step surfaces.</desc>
  <rect width="960" height="640" rx="44" fill="#F3F0FA"/>
  <path d="M0 424C114 374 210 376 335 425C470 478 585 502 711 446C805 405 880 364 960 382V640H0V424Z" fill="#E1E8F8"/>
  <path d="M0 0H960V174C842 166 775 124 658 104C532 82 414 110 300 154C174 203 83 205 0 168V0Z" fill="#F9F2E4"/>
  <rect x="118" y="128" width="298" height="384" rx="34" fill="#FFFDF8" stroke="#C9BEE8" stroke-width="4"/>
  <rect x="154" y="172" width="158" height="22" rx="11" fill="#4A5377"/>
  <rect x="154" y="218" width="210" height="16" rx="8" fill="#C9BEE8"/>
  <rect x="154" y="250" width="176" height="16" rx="8" fill="#D6E0F5"/>
  <rect x="154" y="318" width="226" height="48" rx="16" fill="#F3F0FA"/>
  <rect x="154" y="386" width="188" height="48" rx="16" fill="#EFF6F4"/>
  <circle cx="178" cy="342" r="10" fill="#5E6FA7"/>
  <circle cx="178" cy="410" r="10" fill="#35736D"/>
  <path d="M214 342H326" stroke="#5E6FA7" stroke-width="9" stroke-linecap="round"/>
  <path d="M214 410H292" stroke="#35736D" stroke-width="9" stroke-linecap="round"/>
  <path d="M638 112L798 178V288C798 384 735 466 638 520C541 466 478 384 478 288V178L638 112Z" fill="#FFFDF8" stroke="#4A5377" stroke-width="7" stroke-linejoin="round"/>
  <path d="M638 176L733 216V292C733 354 697 408 638 448C579 408 543 354 543 292V216L638 176Z" fill="#E1E8F8" stroke="#5E6FA7" stroke-width="6" stroke-linejoin="round"/>
  <path d="M600 311L630 342L681 280" stroke="#35736D" stroke-width="16" stroke-linecap="round" stroke-linejoin="round"/>
  <circle cx="494" cy="482" r="32" fill="#C5824D"/>
  <path d="M481 482H507" stroke="#FFFDF8" stroke-width="8" stroke-linecap="round"/>
  <circle cx="792" cy="456" r="36" fill="#4A5377"/>
  <path d="M776 456L789 470L812 442" stroke="#FFFDF8" stroke-width="8" stroke-linecap="round" stroke-linejoin="round"/>
</svg>
